<mxfile host="app.diagrams.net" modified="2021-07-30T06:19:33.372Z" agent="5.0 (Macintosh; Intel Mac OS X 10_15_7) AppleWebKit/537.36 (KHTML, like Gecko) Chrome/92.0.4515.107 Safari/537.36" etag="1qfPOW1kgyxxgwtEk6U_" version="14.9.3" type="github">
  <diagram id="Wp12eeBUBseXpYn_X6zJ" name="Page-1">
    <mxGraphModel dx="1298" dy="730" grid="1" gridSize="10" guides="1" tooltips="1" connect="1" arrows="1" fold="1" page="1" pageScale="1" pageWidth="827" pageHeight="1169" math="0" shadow="0">
      <root>
        <mxCell id="0" />
        <mxCell id="1" parent="0" />
        <mxCell id="VpzLnJdZaqwTN8k3UgJB-34" value="" style="rounded=0;whiteSpace=wrap;html=1;fontSize=16;align=center;dashed=1;" vertex="1" parent="1">
          <mxGeometry x="250" y="400" width="670" height="150" as="geometry" />
        </mxCell>
        <mxCell id="VpzLnJdZaqwTN8k3UgJB-26" value="" style="rounded=0;whiteSpace=wrap;html=1;fontSize=16;dashed=1;" vertex="1" parent="1">
          <mxGeometry x="250" y="40" width="670" height="340" as="geometry" />
        </mxCell>
        <mxCell id="VpzLnJdZaqwTN8k3UgJB-27" style="edgeStyle=orthogonalEdgeStyle;rounded=0;orthogonalLoop=1;jettySize=auto;html=1;entryX=0;entryY=0.5;entryDx=0;entryDy=0;fontSize=16;" edge="1" parent="1" source="VpzLnJdZaqwTN8k3UgJB-1" target="VpzLnJdZaqwTN8k3UgJB-7">
          <mxGeometry relative="1" as="geometry" />
        </mxCell>
        <mxCell id="VpzLnJdZaqwTN8k3UgJB-1" value="Client" style="rounded=0;whiteSpace=wrap;html=1;fontSize=16;" vertex="1" parent="1">
          <mxGeometry x="70" y="115" width="110" height="60" as="geometry" />
        </mxCell>
        <mxCell id="VpzLnJdZaqwTN8k3UgJB-3" value="" style="rounded=0;whiteSpace=wrap;html=1;fontSize=16;" vertex="1" parent="1">
          <mxGeometry x="270" y="90" width="160" height="190" as="geometry" />
        </mxCell>
        <mxCell id="VpzLnJdZaqwTN8k3UgJB-4" value="Worker" style="text;html=1;strokeColor=none;fillColor=none;align=center;verticalAlign=middle;whiteSpace=wrap;rounded=0;dashed=1;fontSize=16;" vertex="1" parent="1">
          <mxGeometry x="280" y="100" width="50" height="20" as="geometry" />
        </mxCell>
        <mxCell id="VpzLnJdZaqwTN8k3UgJB-5" value="" style="rounded=0;whiteSpace=wrap;html=1;fontSize=16;" vertex="1" parent="1">
          <mxGeometry x="490" y="90" width="160" height="190" as="geometry" />
        </mxCell>
        <mxCell id="VpzLnJdZaqwTN8k3UgJB-6" value="Worker（master）" style="text;html=1;strokeColor=none;fillColor=none;align=center;verticalAlign=middle;whiteSpace=wrap;rounded=0;dashed=1;fontSize=16;" vertex="1" parent="1">
          <mxGeometry x="497" y="100" width="136" height="20" as="geometry" />
        </mxCell>
        <mxCell id="VpzLnJdZaqwTN8k3UgJB-7" value="Endpoint" style="rounded=0;whiteSpace=wrap;html=1;fontSize=16;" vertex="1" parent="1">
          <mxGeometry x="270" y="130" width="160" height="30" as="geometry" />
        </mxCell>
        <mxCell id="VpzLnJdZaqwTN8k3UgJB-8" value="SQL Parser/Analyzer" style="rounded=0;whiteSpace=wrap;html=1;fontSize=16;" vertex="1" parent="1">
          <mxGeometry x="270" y="160" width="160" height="30" as="geometry" />
        </mxCell>
        <mxCell id="VpzLnJdZaqwTN8k3UgJB-9" value="Planner" style="rounded=0;whiteSpace=wrap;html=1;fontSize=16;" vertex="1" parent="1">
          <mxGeometry x="270" y="190" width="160" height="30" as="geometry" />
        </mxCell>
        <mxCell id="VpzLnJdZaqwTN8k3UgJB-10" value="Scheduler" style="rounded=0;whiteSpace=wrap;html=1;fontSize=16;" vertex="1" parent="1">
          <mxGeometry x="270" y="220" width="160" height="30" as="geometry" />
        </mxCell>
        <mxCell id="VpzLnJdZaqwTN8k3UgJB-22" style="edgeStyle=orthogonalEdgeStyle;rounded=0;orthogonalLoop=1;jettySize=auto;html=1;exitX=1;exitY=0.5;exitDx=0;exitDy=0;entryX=0.006;entryY=0.295;entryDx=0;entryDy=0;entryPerimeter=0;fontSize=16;" edge="1" parent="1" source="VpzLnJdZaqwTN8k3UgJB-10" target="VpzLnJdZaqwTN8k3UgJB-5">
          <mxGeometry relative="1" as="geometry" />
        </mxCell>
        <mxCell id="VpzLnJdZaqwTN8k3UgJB-25" style="edgeStyle=orthogonalEdgeStyle;rounded=0;orthogonalLoop=1;jettySize=auto;html=1;exitX=1;exitY=0.5;exitDx=0;exitDy=0;entryX=0;entryY=0.5;entryDx=0;entryDy=0;fontSize=16;" edge="1" parent="1" source="VpzLnJdZaqwTN8k3UgJB-10" target="VpzLnJdZaqwTN8k3UgJB-20">
          <mxGeometry relative="1" as="geometry">
            <Array as="points">
              <mxPoint x="460" y="235" />
              <mxPoint x="460" y="300" />
              <mxPoint x="660" y="300" />
              <mxPoint x="660" y="145" />
            </Array>
          </mxGeometry>
        </mxCell>
        <mxCell id="VpzLnJdZaqwTN8k3UgJB-12" value="MDM" style="rounded=0;whiteSpace=wrap;html=1;fontSize=16;align=center;" vertex="1" parent="1">
          <mxGeometry x="270" y="250" width="160" height="30" as="geometry" />
        </mxCell>
        <mxCell id="VpzLnJdZaqwTN8k3UgJB-13" value="MDM" style="rounded=0;whiteSpace=wrap;html=1;fontSize=16;" vertex="1" parent="1">
          <mxGeometry x="490" y="250" width="160" height="30" as="geometry" />
        </mxCell>
        <mxCell id="VpzLnJdZaqwTN8k3UgJB-15" style="edgeStyle=orthogonalEdgeStyle;rounded=0;orthogonalLoop=1;jettySize=auto;html=1;fontSize=16;shape=flexArrow;" edge="1" parent="1">
          <mxGeometry relative="1" as="geometry">
            <mxPoint x="569.5" y="175" as="sourcePoint" />
            <mxPoint x="569.5" y="235" as="targetPoint" />
          </mxGeometry>
        </mxCell>
        <mxCell id="VpzLnJdZaqwTN8k3UgJB-14" value="Endpoint" style="rounded=0;whiteSpace=wrap;html=1;fontSize=16;" vertex="1" parent="1">
          <mxGeometry x="490" y="130" width="160" height="30" as="geometry" />
        </mxCell>
        <mxCell id="VpzLnJdZaqwTN8k3UgJB-16" value="" style="rounded=0;whiteSpace=wrap;html=1;fontSize=16;" vertex="1" parent="1">
          <mxGeometry x="700" y="90" width="160" height="190" as="geometry" />
        </mxCell>
        <mxCell id="VpzLnJdZaqwTN8k3UgJB-17" value="Worker" style="text;html=1;strokeColor=none;fillColor=none;align=center;verticalAlign=middle;whiteSpace=wrap;rounded=0;dashed=1;fontSize=16;" vertex="1" parent="1">
          <mxGeometry x="700" y="100" width="63" height="20" as="geometry" />
        </mxCell>
        <mxCell id="VpzLnJdZaqwTN8k3UgJB-18" value="MDM" style="rounded=0;whiteSpace=wrap;html=1;fontSize=16;" vertex="1" parent="1">
          <mxGeometry x="700" y="250" width="160" height="30" as="geometry" />
        </mxCell>
        <mxCell id="VpzLnJdZaqwTN8k3UgJB-19" style="edgeStyle=orthogonalEdgeStyle;rounded=0;orthogonalLoop=1;jettySize=auto;html=1;fontSize=16;shape=flexArrow;" edge="1" parent="1">
          <mxGeometry relative="1" as="geometry">
            <mxPoint x="779.5" y="175" as="sourcePoint" />
            <mxPoint x="779.5" y="235" as="targetPoint" />
          </mxGeometry>
        </mxCell>
        <mxCell id="VpzLnJdZaqwTN8k3UgJB-20" value="Endpoint" style="rounded=0;whiteSpace=wrap;html=1;fontSize=16;" vertex="1" parent="1">
          <mxGeometry x="700" y="130" width="160" height="30" as="geometry" />
        </mxCell>
        <mxCell id="VpzLnJdZaqwTN8k3UgJB-28" value="SQL&amp;nbsp;" style="text;html=1;strokeColor=none;fillColor=none;align=center;verticalAlign=middle;whiteSpace=wrap;rounded=0;dashed=1;fontSize=16;" vertex="1" parent="1">
          <mxGeometry x="190" y="120" width="60" height="20" as="geometry" />
        </mxCell>
        <mxCell id="VpzLnJdZaqwTN8k3UgJB-29" value="Restful" style="text;html=1;strokeColor=none;fillColor=none;align=center;verticalAlign=middle;whiteSpace=wrap;rounded=0;dashed=1;fontSize=16;" vertex="1" parent="1">
          <mxGeometry x="190" y="155" width="60" height="20" as="geometry" />
        </mxCell>
        <mxCell id="VpzLnJdZaqwTN8k3UgJB-30" value="Bitlap Cluster" style="text;html=1;strokeColor=none;fillColor=none;align=center;verticalAlign=middle;whiteSpace=wrap;rounded=0;dashed=1;fontSize=16;" vertex="1" parent="1">
          <mxGeometry x="260" y="50" width="120" height="20" as="geometry" />
        </mxCell>
        <mxCell id="VpzLnJdZaqwTN8k3UgJB-31" value="Bitlap Store" style="rounded=0;whiteSpace=wrap;html=1;fontSize=16;align=center;fillColor=#dae8fc;strokeColor=#6c8ebf;" vertex="1" parent="1">
          <mxGeometry x="270" y="445" width="160" height="80" as="geometry" />
        </mxCell>
        <mxCell id="VpzLnJdZaqwTN8k3UgJB-35" value="Phoenix" style="rounded=0;whiteSpace=wrap;html=1;fontSize=16;align=center;" vertex="1" parent="1">
          <mxGeometry x="430" y="445" width="160" height="80" as="geometry" />
        </mxCell>
        <mxCell id="VpzLnJdZaqwTN8k3UgJB-36" value="Clickhouse" style="rounded=0;whiteSpace=wrap;html=1;fontSize=16;align=center;" vertex="1" parent="1">
          <mxGeometry x="590" y="445" width="160" height="80" as="geometry" />
        </mxCell>
        <mxCell id="VpzLnJdZaqwTN8k3UgJB-37" value="....." style="rounded=0;whiteSpace=wrap;html=1;fontSize=16;align=center;" vertex="1" parent="1">
          <mxGeometry x="750" y="445" width="160" height="80" as="geometry" />
        </mxCell>
        <mxCell id="VpzLnJdZaqwTN8k3UgJB-38" value="MDM DataSource" style="text;html=1;strokeColor=none;fillColor=none;align=center;verticalAlign=middle;whiteSpace=wrap;rounded=0;dashed=1;fontSize=16;" vertex="1" parent="1">
          <mxGeometry x="260" y="410" width="160" height="20" as="geometry" />
        </mxCell>
        <mxCell id="VpzLnJdZaqwTN8k3UgJB-39" value="MDM：Metric Dimension Model" style="text;html=1;strokeColor=none;fillColor=none;align=center;verticalAlign=middle;whiteSpace=wrap;rounded=0;dashed=1;fontSize=16;" vertex="1" parent="1">
          <mxGeometry x="260" y="350" width="260" height="20" as="geometry" />
        </mxCell>
      </root>
    </mxGraphModel>
  </diagram>
</mxfile>
